<?xml version="1.0" encoding="UTF-8" standalone="no"?>
<svg
   xmlns:dc="http://purl.org/dc/elements/1.1/"
   xmlns:cc="http://creativecommons.org/ns#"
   xmlns:rdf="http://www.w3.org/1999/02/22-rdf-syntax-ns#"
   xmlns:svg="http://www.w3.org/2000/svg"
   xmlns="http://www.w3.org/2000/svg"
   xmlns:sodipodi="http://sodipodi.sourceforge.net/DTD/sodipodi-0.dtd"
   xmlns:inkscape="http://www.inkscape.org/namespaces/inkscape"
   id="svg8"
   version="1.1"
   viewBox="0 0 216.81959 149.75006"
   height="149.75006mm"
   width="216.8196mm"
   sodipodi:docname="prepart.svg"
   inkscape:version="0.92.2 (5c3e80d, 2017-08-06)">
  <sodipodi:namedview
     pagecolor="#ffffff"
     bordercolor="#666666"
     borderopacity="1"
     objecttolerance="10"
     gridtolerance="10"
     guidetolerance="10"
     inkscape:pageopacity="0"
     inkscape:pageshadow="2"
     inkscape:window-width="1920"
     inkscape:window-height="1017"
     id="namedview158"
     showgrid="false"
     fit-margin-top="0"
     fit-margin-left="0"
     fit-margin-right="0"
     fit-margin-bottom="0"
     inkscape:zoom="0.45923588"
     inkscape:cx="-148.58241"
     inkscape:cy="-85.545481"
     inkscape:window-x="1912"
     inkscape:window-y="-8"
     inkscape:window-maximized="1"
     inkscape:current-layer="text1468" />
  <defs
     id="defs2">
    <marker
       style="overflow:visible"
       id="marker2931"
       refX="0"
       refY="0"
       orient="auto">
      <path
         transform="scale(-0.6)"
         d="M 8.7185878,4.0337352 -2.2072895,0.01601326 8.7185884,-4.0017078 c -1.7454984,2.3720609 -1.7354408,5.6174519 -6e-7,8.035443 z"
         style="fill:#000000;fill-opacity:1;fill-rule:evenodd;stroke:#000000;stroke-width:0.625;stroke-linejoin:round;stroke-opacity:1"
         id="path2929"
         inkscape:connector-curvature="0" />
    </marker>
    <marker
       style="overflow:visible"
       id="marker2777"
       refX="0"
       refY="0"
       orient="auto">
      <path
         transform="scale(-0.6)"
         d="M 8.7185878,4.0337352 -2.2072895,0.01601326 8.7185884,-4.0017078 c -1.7454984,2.3720609 -1.7354408,5.6174519 -6e-7,8.035443 z"
         style="fill:#000000;fill-opacity:1;fill-rule:evenodd;stroke:#000000;stroke-width:0.625;stroke-linejoin:round;stroke-opacity:1"
         id="path2775"
         inkscape:connector-curvature="0" />
    </marker>
    <marker
       style="overflow:visible"
       id="marker2629"
       refX="0"
       refY="0"
       orient="auto">
      <path
         transform="scale(-0.6)"
         d="M 8.7185878,4.0337352 -2.2072895,0.01601326 8.7185884,-4.0017078 c -1.7454984,2.3720609 -1.7354408,5.6174519 -6e-7,8.035443 z"
         style="fill:#000000;fill-opacity:1;fill-rule:evenodd;stroke:#000000;stroke-width:0.625;stroke-linejoin:round;stroke-opacity:1"
         id="path2627"
         inkscape:connector-curvature="0" />
    </marker>
    <marker
       style="overflow:visible"
       id="marker2487"
       refX="0"
       refY="0"
       orient="auto">
      <path
         transform="scale(-0.6)"
         d="M 8.7185878,4.0337352 -2.2072895,0.01601326 8.7185884,-4.0017078 c -1.7454984,2.3720609 -1.7354408,5.6174519 -6e-7,8.035443 z"
         style="fill:#000000;fill-opacity:1;fill-rule:evenodd;stroke:#000000;stroke-width:0.625;stroke-linejoin:round;stroke-opacity:1"
         id="path2485"
         inkscape:connector-curvature="0" />
    </marker>
    <marker
       style="overflow:visible"
       id="marker2351"
       refX="0"
       refY="0"
       orient="auto">
      <path
         transform="matrix(-0.4,0,0,-0.4,-4,0)"
         style="fill:#000000;fill-opacity:1;fill-rule:evenodd;stroke:#000000;stroke-width:1.00000003pt;stroke-opacity:1"
         d="M 0,0 5,-5 -12.5,0 5,5 Z"
         id="path2349"
         inkscape:connector-curvature="0" />
    </marker>
    <marker
       style="overflow:visible"
       id="Arrow1Mend"
       refX="0"
       refY="0"
       orient="auto">
      <path
         transform="matrix(-0.4,0,0,-0.4,-4,0)"
         style="fill:#000000;fill-opacity:1;fill-rule:evenodd;stroke:#000000;stroke-width:1.00000003pt;stroke-opacity:1"
         d="M 0,0 5,-5 -12.5,0 5,5 Z"
         id="path1100"
         inkscape:connector-curvature="0" />
    </marker>
    <marker
       style="overflow:visible"
       id="Arrow2Send"
       refX="0"
       refY="0"
       orient="auto">
      <path
         transform="matrix(-0.3,0,0,-0.3,0.69,0)"
         d="M 8.7185878,4.0337352 -2.2072895,0.01601326 8.7185884,-4.0017078 c -1.7454984,2.3720609 -1.7354408,5.6174519 -6e-7,8.035443 z"
         style="fill:#000000;fill-opacity:1;fill-rule:evenodd;stroke:#000000;stroke-width:0.625;stroke-linejoin:round;stroke-opacity:1"
         id="path1124"
         inkscape:connector-curvature="0" />
    </marker>
    <marker
       style="overflow:visible"
       id="Arrow1Send"
       refX="0"
       refY="0"
       orient="auto">
      <path
         transform="matrix(-0.2,0,0,-0.2,-1.2,0)"
         style="fill:#000000;fill-opacity:1;fill-rule:evenodd;stroke:#000000;stroke-width:1.00000003pt;stroke-opacity:1"
         d="M 0,0 5,-5 -12.5,0 5,5 Z"
         id="path1106"
         inkscape:connector-curvature="0" />
    </marker>
    <marker
       style="overflow:visible"
       id="marker1597"
       refX="0"
       refY="0"
       orient="auto">
      <path
         transform="scale(-0.6)"
         d="M 8.7185878,4.0337352 -2.2072895,0.01601326 8.7185884,-4.0017078 c -1.7454984,2.3720609 -1.7354408,5.6174519 -6e-7,8.035443 z"
         style="fill:#000000;fill-opacity:1;fill-rule:evenodd;stroke:#000000;stroke-width:0.625;stroke-linejoin:round;stroke-opacity:1"
         id="path1595"
         inkscape:connector-curvature="0" />
    </marker>
    <marker
       style="overflow:visible"
       id="Arrow2Mend"
       refX="0"
       refY="0"
       orient="auto">
      <path
         transform="scale(-0.6)"
         d="M 8.7185878,4.0337352 -2.2072895,0.01601326 8.7185884,-4.0017078 c -1.7454984,2.3720609 -1.7354408,5.6174519 -6e-7,8.035443 z"
         style="fill:#000000;fill-opacity:1;fill-rule:evenodd;stroke:#000000;stroke-width:0.625;stroke-linejoin:round;stroke-opacity:1"
         id="path1118"
         inkscape:connector-curvature="0" />
    </marker>
    <marker
       orient="auto"
       refY="0"
       refX="0"
       id="marker10948"
       style="overflow:visible">
      <path
         id="path10946"
         d="m -2.5,-1 c 0,2.76 -2.24,5 -5,5 -2.76,0 -5,-2.24 -5,-5 0,-2.76 2.24,-5 5,-5 2.76,0 5,2.24 5,5 z"
         style="fill:#3a001c;fill-opacity:1;fill-rule:evenodd;stroke:#3a001c;stroke-width:1.00000003pt;stroke-opacity:1"
         transform="matrix(0.2,0,0,0.2,1.48,0.2)"
         inkscape:connector-curvature="0" />
    </marker>
    <marker
       orient="auto"
       refY="0"
       refX="0"
       id="marker10836"
       style="overflow:visible">
      <path
         id="path10834"
         d="m -2.5,-1 c 0,2.76 -2.24,5 -5,5 -2.76,0 -5,-2.24 -5,-5 0,-2.76 2.24,-5 5,-5 2.76,0 5,2.24 5,5 z"
         style="fill:#3a001c;fill-opacity:1;fill-rule:evenodd;stroke:#3a001c;stroke-width:1.00000003pt;stroke-opacity:1"
         transform="matrix(0.2,0,0,0.2,1.48,0.2)"
         inkscape:connector-curvature="0" />
    </marker>
    <marker
       style="overflow:visible"
       id="marker10664"
       refX="0"
       refY="0"
       orient="auto">
      <path
         transform="matrix(0.2,0,0,0.2,1.48,0.2)"
         style="fill:#3a001c;fill-opacity:1;fill-rule:evenodd;stroke:#3a001c;stroke-width:1.00000003pt;stroke-opacity:1"
         d="m -2.5,-1 c 0,2.76 -2.24,5 -5,5 -2.76,0 -5,-2.24 -5,-5 0,-2.76 2.24,-5 5,-5 2.76,0 5,2.24 5,5 z"
         id="path10662"
         inkscape:connector-curvature="0" />
    </marker>
    <marker
       orient="auto"
       refY="0"
       refX="0"
       id="marker10414"
       style="overflow:visible">
      <path
         id="path10412"
         d="m -2.5,-1 c 0,2.76 -2.24,5 -5,5 -2.76,0 -5,-2.24 -5,-5 0,-2.76 2.24,-5 5,-5 2.76,0 5,2.24 5,5 z"
         style="fill:#3a001c;fill-opacity:1;fill-rule:evenodd;stroke:#3a001c;stroke-width:1.00000003pt;stroke-opacity:1"
         transform="matrix(0.2,0,0,0.2,1.48,0.2)"
         inkscape:connector-curvature="0" />
    </marker>
    <marker
       orient="auto"
       refY="0"
       refX="0"
       id="marker10308"
       style="overflow:visible">
      <path
         id="path10306"
         d="m -2.5,-1 c 0,2.76 -2.24,5 -5,5 -2.76,0 -5,-2.24 -5,-5 0,-2.76 2.24,-5 5,-5 2.76,0 5,2.24 5,5 z"
         style="fill:#3a001c;fill-opacity:1;fill-rule:evenodd;stroke:#3a001c;stroke-width:1.00000003pt;stroke-opacity:1"
         transform="matrix(0.2,0,0,0.2,1.48,0.2)"
         inkscape:connector-curvature="0" />
    </marker>
    <marker
       style="overflow:visible"
       id="DotS"
       refX="0"
       refY="0"
       orient="auto">
      <path
         transform="matrix(0.2,0,0,0.2,1.48,0.2)"
         style="fill:#3a001c;fill-opacity:1;fill-rule:evenodd;stroke:#3a001c;stroke-width:1.00000003pt;stroke-opacity:1"
         d="m -2.5,-1 c 0,2.76 -2.24,5 -5,5 -2.76,0 -5,-2.24 -5,-5 0,-2.76 2.24,-5 5,-5 2.76,0 5,2.24 5,5 z"
         id="path4919"
         inkscape:connector-curvature="0" />
    </marker>
    <marker
       style="overflow:visible"
       id="DotM"
       refX="0"
       refY="0"
       orient="auto">
      <path
         transform="matrix(0.4,0,0,0.4,2.96,0.4)"
         style="fill:#000000;fill-opacity:1;fill-rule:evenodd;stroke:#000000;stroke-width:1.00000003pt;stroke-opacity:1"
         d="m -2.5,-1 c 0,2.76 -2.24,5 -5,5 -2.76,0 -5,-2.24 -5,-5 0,-2.76 2.24,-5 5,-5 2.76,0 5,2.24 5,5 z"
         id="path4916"
         inkscape:connector-curvature="0" />
    </marker>
    <marker
       style="overflow:visible"
       id="DotL"
       refX="0"
       refY="0"
       orient="auto">
      <path
         transform="matrix(0.8,0,0,0.8,5.92,0.8)"
         style="fill:#000000;fill-opacity:1;fill-rule:evenodd;stroke:#000000;stroke-width:1.00000003pt;stroke-opacity:1"
         d="m -2.5,-1 c 0,2.76 -2.24,5 -5,5 -2.76,0 -5,-2.24 -5,-5 0,-2.76 2.24,-5 5,-5 2.76,0 5,2.24 5,5 z"
         id="path4913"
         inkscape:connector-curvature="0" />
    </marker>
    <clipPath
       id="clipPath8">
      <path
         id="path10"
         d="M -20,50 10,13 c 5.522847,0 10,4.477153 10,10 L 40,50 20,-30"
         inkscape:connector-curvature="0" />
    </clipPath>
    <marker
       style="overflow:visible"
       id="DotS-3"
       refX="0"
       refY="0"
       orient="auto">
      <path
         transform="matrix(0.2,0,0,0.2,1.48,0.2)"
         style="fill:#3a001c;fill-opacity:1;fill-rule:evenodd;stroke:#3a001c;stroke-width:1.00000003pt;stroke-opacity:1"
         d="m -2.5,-1 c 0,2.76 -2.24,5 -5,5 -2.76,0 -5,-2.24 -5,-5 0,-2.76 2.24,-5 5,-5 2.76,0 5,2.24 5,5 z"
         id="path4919-5"
         inkscape:connector-curvature="0" />
    </marker>
    <marker
       style="overflow:visible"
       id="DotS-3-7"
       refX="0"
       refY="0"
       orient="auto">
      <path
         transform="matrix(0.2,0,0,0.2,1.48,0.2)"
         style="fill:#3a001c;fill-opacity:1;fill-rule:evenodd;stroke:#3a001c;stroke-width:1.00000003pt;stroke-opacity:1"
         d="m -2.5,-1 c 0,2.76 -2.24,5 -5,5 -2.76,0 -5,-2.24 -5,-5 0,-2.76 2.24,-5 5,-5 2.76,0 5,2.24 5,5 z"
         id="path4919-5-2"
         inkscape:connector-curvature="0" />
    </marker>
    <marker
       style="overflow:visible"
       id="DotS-0"
       refX="0"
       refY="0"
       orient="auto">
      <path
         transform="matrix(0.2,0,0,0.2,1.48,0.2)"
         style="fill:#3a001c;fill-opacity:1;fill-rule:evenodd;stroke:#3a001c;stroke-width:1.00000003pt;stroke-opacity:1"
         d="m -2.5,-1 c 0,2.76 -2.24,5 -5,5 -2.76,0 -5,-2.24 -5,-5 0,-2.76 2.24,-5 5,-5 2.76,0 5,2.24 5,5 z"
         id="path4919-2"
         inkscape:connector-curvature="0" />
    </marker>
    <marker
       style="overflow:visible"
       id="DotS-3-70"
       refX="0"
       refY="0"
       orient="auto">
      <path
         transform="matrix(0.2,0,0,0.2,1.48,0.2)"
         style="fill:#ffffff;fill-opacity:1;fill-rule:evenodd;stroke:#ffffff;stroke-width:1.00000003pt;stroke-opacity:1"
         d="m -2.5,-1 c 0,2.76 -2.24,5 -5,5 -2.76,0 -5,-2.24 -5,-5 0,-2.76 2.24,-5 5,-5 2.76,0 5,2.24 5,5 z"
         id="path4919-5-9"
         inkscape:connector-curvature="0" />
    </marker>
    <marker
       style="overflow:visible"
       id="DotS-4"
       refX="0"
       refY="0"
       orient="auto">
      <path
         transform="matrix(0.2,0,0,0.2,1.48,0.2)"
         style="fill:#3a001c;fill-opacity:1;fill-rule:evenodd;stroke:#3a001c;stroke-width:1.00000003pt;stroke-opacity:1"
         d="m -2.5,-1 c 0,2.76 -2.24,5 -5,5 -2.76,0 -5,-2.24 -5,-5 0,-2.76 2.24,-5 5,-5 2.76,0 5,2.24 5,5 z"
         id="path4919-1"
         inkscape:connector-curvature="0" />
    </marker>
    <marker
       style="overflow:visible"
       id="DotS-4-8"
       refX="0"
       refY="0"
       orient="auto">
      <path
         transform="matrix(0.2,0,0,0.2,1.48,0.2)"
         style="fill:#ffffff;fill-opacity:1;fill-rule:evenodd;stroke:#000000;stroke-width:1.00000003pt;stroke-opacity:1"
         d="m -2.5,-1 c 0,2.76 -2.24,5 -5,5 -2.76,0 -5,-2.24 -5,-5 0,-2.76 2.24,-5 5,-5 2.76,0 5,2.24 5,5 z"
         id="path4919-1-2"
         inkscape:connector-curvature="0" />
    </marker>
    <filter
       y="-0.25"
       x="-0.25"
       height="1.5"
       width="1.5"
       id="filter3001"
       style="color-interpolation-filters:sRGB">
      <feGaussianBlur
         result="blur"
         stdDeviation="3"
         in="SourceAlpha"
         id="feGaussianBlur3003" />
      <feColorMatrix
         values="1 0 0 0 0 0 1 0 0 0 0 0 1 0 0 0 0 0 0.6 0 "
         type="matrix"
         result="bluralpha"
         id="feColorMatrix3005" />
      <feOffset
         result="offsetBlur"
         dy="6"
         dx="6"
         in="bluralpha"
         id="feOffset3007" />
      <feMerge
         id="feMerge3009">
        <feMergeNode
           in="offsetBlur"
           id="feMergeNode3011" />
        <feMergeNode
           in="SourceGraphic"
           id="feMergeNode3013" />
      </feMerge>
    </filter>
    <marker
       style="overflow:visible"
       id="marker2931-1"
       refX="0"
       refY="0"
       orient="auto">
      <path
         transform="scale(-0.6)"
         d="M 8.7185878,4.0337352 -2.2072895,0.01601326 8.7185884,-4.0017078 c -1.7454984,2.3720609 -1.7354408,5.6174519 -6e-7,8.035443 z"
         style="fill:#000000;fill-opacity:1;fill-rule:evenodd;stroke:#000000;stroke-width:0.625;stroke-linejoin:round;stroke-opacity:1"
         id="path2929-8"
         inkscape:connector-curvature="0" />
    </marker>
    <clipPath
       id="clipPath8-3">
      <path
         id="path10-1"
         d="M -20,50 10,13 c 5.522847,0 10,4.477153 10,10 L 40,50 20,-30"
         inkscape:connector-curvature="0" />
    </clipPath>
    <clipPath
       id="clipPath3733">
      <path
         id="path3731"
         d="M -20,50 10,13 c 5.522847,0 10,4.477153 10,10 L 40,50 20,-30"
         inkscape:connector-curvature="0" />
    </clipPath>
    <clipPath
       id="clipPath8-5">
      <path
         id="path10-5"
         d="M -20,50 10,13 c 5.522847,0 10,4.477153 10,10 L 40,50 20,-30"
         inkscape:connector-curvature="0" />
    </clipPath>
    <clipPath
       id="clipPath4087">
      <path
         id="path4085"
         d="M -20,50 10,13 c 5.522847,0 10,4.477153 10,10 L 40,50 20,-30"
         inkscape:connector-curvature="0" />
    </clipPath>
    <marker
       style="overflow:visible"
       id="marker2931-2"
       refX="0"
       refY="0"
       orient="auto">
      <path
         transform="scale(-0.6)"
         d="M 8.7185878,4.0337352 -2.2072895,0.01601326 8.7185884,-4.0017078 c -1.7454984,2.3720609 -1.7354408,5.6174519 -6e-7,8.035443 z"
         style="fill:#000000;fill-opacity:1;fill-rule:evenodd;stroke:#000000;stroke-width:0.625;stroke-linejoin:round;stroke-opacity:1"
         id="path2929-0"
         inkscape:connector-curvature="0" />
    </marker>
    <clipPath
       id="clipPath8-5-9">
      <path
         id="path10-5-5"
         d="M -20,50 10,13 c 5.522847,0 10,4.477153 10,10 L 40,50 20,-30"
         inkscape:connector-curvature="0" />
    </clipPath>
    <clipPath
       id="clipPath4451">
      <path
         id="path4449"
         d="M -20,50 10,13 c 5.522847,0 10,4.477153 10,10 L 40,50 20,-30"
         inkscape:connector-curvature="0" />
    </clipPath>
    <marker
       style="overflow:visible"
       id="marker2931-2-9"
       refX="0"
       refY="0"
       orient="auto">
      <path
         transform="scale(-0.6)"
         d="M 8.7185878,4.0337352 -2.2072895,0.01601326 8.7185884,-4.0017078 c -1.7454984,2.3720609 -1.7354408,5.6174519 -6e-7,8.035443 z"
         style="fill:#000000;fill-opacity:1;fill-rule:evenodd;stroke:#000000;stroke-width:0.625;stroke-linejoin:round;stroke-opacity:1"
         id="path2929-0-1"
         inkscape:connector-curvature="0" />
    </marker>
    <clipPath
       id="clipPath8-5-9-1">
      <path
         id="path10-5-5-8"
         d="M -20,50 10,13 c 5.522847,0 10,4.477153 10,10 L 40,50 20,-30"
         inkscape:connector-curvature="0" />
    </clipPath>
    <clipPath
       id="clipPath4860">
      <path
         id="path4858"
         d="M -20,50 10,13 c 5.522847,0 10,4.477153 10,10 L 40,50 20,-30"
         inkscape:connector-curvature="0" />
    </clipPath>
    <marker
       style="overflow:visible"
       id="marker2931-2-9-7"
       refX="0"
       refY="0"
       orient="auto">
      <path
         transform="scale(-0.6)"
         d="M 8.7185878,4.0337352 -2.2072895,0.01601326 8.7185884,-4.0017078 c -1.7454984,2.3720609 -1.7354408,5.6174519 -6e-7,8.035443 z"
         style="fill:#000000;fill-opacity:1;fill-rule:evenodd;stroke:#000000;stroke-width:0.625;stroke-linejoin:round;stroke-opacity:1"
         id="path2929-0-1-6"
         inkscape:connector-curvature="0" />
    </marker>
    <clipPath
       id="clipPath8-1">
      <path
         id="path10-9"
         d="M -20,50 10,13 c 5.522847,0 10,4.477153 10,10 L 40,50 20,-30"
         inkscape:connector-curvature="0" />
    </clipPath>
    <clipPath
       id="clipPath1674">
      <path
         id="path1672"
         d="M -20,50 10,13 c 5.522847,0 10,4.477153 10,10 L 40,50 20,-30"
         inkscape:connector-curvature="0" />
    </clipPath>
    <clipPath
       id="clipPath8-6">
      <path
         id="path10-8"
         d="M -20,50 10,13 c 5.522847,0 10,4.477153 10,10 L 40,50 20,-30"
         inkscape:connector-curvature="0" />
    </clipPath>
    <clipPath
       id="clipPath1674-4">
      <path
         id="path1672-1"
         d="M -20,50 10,13 c 5.522847,0 10,4.477153 10,10 L 40,50 20,-30"
         inkscape:connector-curvature="0" />
    </clipPath>
    <clipPath
       id="clipPath8-9">
      <path
         id="path10-7"
         d="M -20,50 10,13 c 5.522847,0 10,4.477153 10,10 L 40,50 20,-30"
         inkscape:connector-curvature="0" />
    </clipPath>
    <clipPath
       id="clipPath1674-45">
      <path
         id="path1672-0"
         d="M -20,50 10,13 c 5.522847,0 10,4.477153 10,10 L 40,50 20,-30"
         inkscape:connector-curvature="0" />
    </clipPath>
    <clipPath
       id="clipPath8-7">
      <path
         id="path10-72"
         d="M -20,50 10,13 c 5.522847,0 10,4.477153 10,10 L 40,50 20,-30"
         inkscape:connector-curvature="0" />
    </clipPath>
    <clipPath
       id="clipPath1540">
      <path
         id="path1538"
         d="M -20,50 10,13 c 5.522847,0 10,4.477153 10,10 L 40,50 20,-30"
         inkscape:connector-curvature="0" />
    </clipPath>
    <clipPath
       id="clipPath8-66">
      <path
         id="path10-85"
         d="M -20,50 10,13 c 5.522847,0 10,4.477153 10,10 L 40,50 20,-30"
         inkscape:connector-curvature="0" />
    </clipPath>
    <clipPath
       id="clipPath1540-1">
      <path
         id="path1538-4"
         d="M -20,50 10,13 c 5.522847,0 10,4.477153 10,10 L 40,50 20,-30"
         inkscape:connector-curvature="0" />
    </clipPath>
    <clipPath
       id="clipPath8-16">
      <path
         id="path10-50"
         d="M -20,50 10,13 c 5.522847,0 10,4.477153 10,10 L 40,50 20,-30"
         inkscape:connector-curvature="0" />
    </clipPath>
    <clipPath
       id="clipPath1540-0">
      <path
         id="path1538-7"
         d="M -20,50 10,13 c 5.522847,0 10,4.477153 10,10 L 40,50 20,-30"
         inkscape:connector-curvature="0" />
    </clipPath>
  </defs>
  <metadata
     id="metadata5">
    <rdf:RDF>
      <cc:Work
         rdf:about="">
        <dc:format>image/svg+xml</dc:format>
        <dc:type
           rdf:resource="http://purl.org/dc/dcmitype/StillImage" />
        <dc:title />
      </cc:Work>
    </rdf:RDF>
  </metadata>
  <path
     style="opacity:1;fill:#0b9629;fill-opacity:1;stroke:#000000;stroke-width:4.82949018;stroke-miterlimit:4;stroke-dasharray:none;stroke-dashoffset:0;stroke-opacity:1"
     d="M 88.920008,75.874275 A 22.516016,22.516016 0 0 1 66.403992,98.390291 22.516016,22.516016 0 0 1 43.887976,75.874275 22.516016,22.516016 0 0 1 66.403992,53.358259 22.516016,22.516016 0 0 1 88.920008,75.874275 Z"
     id="path825" />
  <path
     inkscape:connector-curvature="0"
     style="fill:none;stroke:#000000;stroke-width:4;stroke-linecap:butt;stroke-linejoin:miter;stroke-miterlimit:4;stroke-dasharray:none;stroke-opacity:1"
     d="M 77.081846,56.502998 90.736236,33.210211"
     id="path827" />
  <path
     inkscape:connector-curvature="0"
     style="fill:none;stroke:#000000;stroke-width:4;stroke-linecap:butt;stroke-linejoin:miter;stroke-miterlimit:4;stroke-dasharray:none;stroke-opacity:1"
     d="M 54.639516,56.739231 32.953126,27.587821"
     id="path829" />
  <path
     inkscape:connector-curvature="0"
     style="fill:none;stroke:#000000;stroke-width:4;stroke-linecap:butt;stroke-linejoin:miter;stroke-miterlimit:4;stroke-dasharray:none;stroke-opacity:1"
     d="M 44.859376,68.550987 22.984006,58.581866"
     id="path831" />
  <path
     inkscape:connector-curvature="0"
     style="fill:none;stroke:#000000;stroke-width:4;stroke-linecap:butt;stroke-linejoin:miter;stroke-miterlimit:4;stroke-dasharray:none;stroke-opacity:1"
     d="M 50.906996,92.552479 29.504096,110.4591"
     id="path833" />
  <path
     inkscape:connector-curvature="0"
     style="fill:none;stroke:#000000;stroke-width:4;stroke-linecap:butt;stroke-linejoin:miter;stroke-miterlimit:4;stroke-dasharray:none;stroke-opacity:1"
     d="m 79.491446,94.158869 18.14286,23.292791"
     id="path835" />
  <path
     style="opacity:1;fill:none;fill-opacity:0.94117647;stroke:#000000;stroke-width:4;stroke-miterlimit:4;stroke-dasharray:none;stroke-dashoffset:0;stroke-opacity:1"
     d="M 114.50792,19.191689 A 15.911921,15.911921 0 0 1 98.596001,35.103609 15.911921,15.911921 0 0 1 82.68408,19.191689 15.911921,15.911921 0 0 1 98.596001,3.279768 15.911921,15.911921 0 0 1 114.50792,19.191689 Z"
     id="path825-8" />
  <path
     style="opacity:1;fill:none;fill-opacity:0.94117647;stroke:#000000;stroke-width:4;stroke-miterlimit:4;stroke-dasharray:none;stroke-dashoffset:0;stroke-opacity:1"
     d="M 37.142175,19.40361 A 10.332389,10.332389 0 0 1 26.809786,29.735999 10.332389,10.332389 0 0 1 16.477397,19.40361 10.332389,10.332389 0 0 1 26.809786,9.0712214 10.332389,10.332389 0 0 1 37.142175,19.40361 Z"
     id="path825-8-0" />
  <path
     style="opacity:1;fill:none;fill-opacity:0.94117647;stroke:#000000;stroke-width:4;stroke-miterlimit:4;stroke-dasharray:none;stroke-dashoffset:0;stroke-opacity:1"
     d="m 22.944855,56.214432 a 5.8988957,5.8988957 0 0 1 -5.898896,5.898896 5.8988957,5.8988957 0 0 1 -5.898895,-5.898896 5.8988957,5.8988957 0 0 1 5.898895,-5.898896 5.8988957,5.8988957 0 0 1 5.898896,5.898896 z"
     id="path825-8-0-5" />
  <g
     id="g4640"
     transform="matrix(1.1491725,0,0,1.1491725,-313.64273,-21.479909)">
    <g
       clip-path="url(#clipPath8)"
       id="body"
       style="fill:none;stroke:#ffffff;stroke-width:3.5;stroke-linecap:round;stroke-linejoin:round"
       transform="matrix(0.76624502,0,0,0.76624502,318.22357,72.515277)">
      <path
         inkscape:connector-curvature="0"
         d="M 16,9 11,19"
         style="stroke:#ffffff;stroke-width:6"
         id="torso" />
      <g
         id="g4632">
        <path
           style="fill:#ffffff;stroke:#ffffff"
           d="M 22,3 A 3,3 0 0 1 19,6 3,3 0 0 1 16,3 3,3 0 0 1 19,0 3,3 0 0 1 22,3 Z"
           id="head"
           inkscape:connector-curvature="0" />
        <path
           inkscape:connector-curvature="0"
           id="limbs"
           d="M 29,28 24,18 11,19 16,7.75 8,8 5,14"
           style="stroke:#ffffff" />
      </g>
    </g>
    <path
       style="fill:none;stroke:#ffffff;stroke-width:2.68185759;stroke-linecap:round;stroke-linejoin:round"
       d="m 331.44132,90.138916 a 5.5552769,5.5552769 0 0 1 -5.55527,5.555277 5.5552769,5.5552769 0 0 1 -5.55528,-5.555277 5.5552769,5.5552769 0 0 1 5.55528,-5.555277 5.5552769,5.5552769 0 0 1 5.55527,5.555277 z"
       id="wheel"
       inkscape:connector-curvature="0" />
  </g>
  <path
     style="opacity:1;fill:none;fill-opacity:0.94117647;stroke:#000000;stroke-width:4;stroke-miterlimit:4;stroke-dasharray:none;stroke-dashoffset:0;stroke-opacity:1"
     d="m 34.091793,119.33646 a 15.911921,15.911921 0 0 1 -15.91192,15.91192 15.911921,15.911921 0 0 1 -15.911921,-15.91192 15.911921,15.911921 0 0 1 15.911921,-15.91192 15.911921,15.911921 0 0 1 15.91192,15.91192 z"
     id="path825-8-7" />
  <path
     style="opacity:1;fill:none;fill-opacity:0.94117647;stroke:#000000;stroke-width:4;stroke-miterlimit:4;stroke-dasharray:none;stroke-dashoffset:0;stroke-opacity:1"
     d="m 106.7889,122.6368 a 5.8988962,5.8988962 0 0 1 -5.89889,5.8989 5.8988962,5.8988962 0 0 1 -5.898899,-5.8989 5.8988962,5.8988962 0 0 1 5.898899,-5.89889 5.8988962,5.8988962 0 0 1 5.89889,5.89889 z"
     id="path825-8-0-5-7" />
  <path
     style="opacity:1;fill:#0b9629;fill-opacity:1;stroke:#000000;stroke-width:4.82949018;stroke-miterlimit:4;stroke-dasharray:none;stroke-dashoffset:0;stroke-opacity:1"
     d="M 88.920008,75.874275 A 22.516016,22.516016 0 0 1 66.403992,98.390291 22.516016,22.516016 0 0 1 43.887976,75.874275 22.516016,22.516016 0 0 1 66.403992,53.358259 22.516016,22.516016 0 0 1 88.920008,75.874275 Z"
     id="circle1412" />
  <path
     inkscape:connector-curvature="0"
     id="path1414"
     d="M 77.081846,56.502998 90.736236,33.210211"
     style="fill:none;stroke:#000000;stroke-width:4;stroke-linecap:butt;stroke-linejoin:miter;stroke-miterlimit:4;stroke-dasharray:none;stroke-opacity:1" />
  <path
     inkscape:connector-curvature="0"
     id="path1416"
     d="M 54.639516,56.739231 32.953126,27.587821"
     style="fill:none;stroke:#000000;stroke-width:4;stroke-linecap:butt;stroke-linejoin:miter;stroke-miterlimit:4;stroke-dasharray:none;stroke-opacity:1" />
  <path
     inkscape:connector-curvature="0"
     id="path1418"
     d="M 44.859376,68.550987 22.984006,58.581866"
     style="fill:none;stroke:#000000;stroke-width:4;stroke-linecap:butt;stroke-linejoin:miter;stroke-miterlimit:4;stroke-dasharray:none;stroke-opacity:1" />
  <path
     inkscape:connector-curvature="0"
     id="path1440"
     d="M 50.906996,92.552479 29.504096,110.4591"
     style="fill:none;stroke:#000000;stroke-width:4;stroke-linecap:butt;stroke-linejoin:miter;stroke-miterlimit:4;stroke-dasharray:none;stroke-opacity:1" />
  <path
     inkscape:connector-curvature="0"
     id="path1442"
     d="m 79.491446,94.158869 18.14286,23.292791"
     style="fill:none;stroke:#000000;stroke-width:4;stroke-linecap:butt;stroke-linejoin:miter;stroke-miterlimit:4;stroke-dasharray:none;stroke-opacity:1" />
  <path
     style="opacity:1;fill:none;fill-opacity:0.94117647;stroke:#000000;stroke-width:4;stroke-miterlimit:4;stroke-dasharray:none;stroke-dashoffset:0;stroke-opacity:1"
     d="M 114.50792,19.191689 A 15.911921,15.911921 0 0 1 98.596001,35.103609 15.911921,15.911921 0 0 1 82.68408,19.191689 15.911921,15.911921 0 0 1 98.596001,3.279768 15.911921,15.911921 0 0 1 114.50792,19.191689 Z"
     id="circle1444" />
  <path
     style="opacity:1;fill:none;fill-opacity:0.94117647;stroke:#000000;stroke-width:4;stroke-miterlimit:4;stroke-dasharray:none;stroke-dashoffset:0;stroke-opacity:1"
     d="M 37.142175,19.40361 A 10.332389,10.332389 0 0 1 26.809786,29.735999 10.332389,10.332389 0 0 1 16.477397,19.40361 10.332389,10.332389 0 0 1 26.809786,9.0712214 10.332389,10.332389 0 0 1 37.142175,19.40361 Z"
     id="circle1446" />
  <path
     style="opacity:1;fill:none;fill-opacity:0.94117647;stroke:#000000;stroke-width:4;stroke-miterlimit:4;stroke-dasharray:none;stroke-dashoffset:0;stroke-opacity:1"
     d="m 22.944855,56.214432 a 5.8988957,5.8988957 0 0 1 -5.898896,5.898896 5.8988957,5.8988957 0 0 1 -5.898895,-5.898896 5.8988957,5.8988957 0 0 1 5.898895,-5.898896 5.8988957,5.8988957 0 0 1 5.898896,5.898896 z"
     id="circle1448" />
  <g
     transform="matrix(1.1491725,0,0,1.1491725,-313.64273,-21.479909)"
     id="g1462">
    <g
       transform="matrix(0.76624502,0,0,0.76624502,318.22357,72.515277)"
       style="fill:none;stroke:#ffffff;stroke-width:3.5;stroke-linecap:round;stroke-linejoin:round"
       id="g1458"
       clip-path="url(#clipPath8)">
      <path
         inkscape:connector-curvature="0"
         id="path1450"
         style="stroke:#ffffff;stroke-width:6"
         d="M 16,9 11,19" />
      <g
         id="g1456">
        <path
           style="fill:#ffffff;stroke:#ffffff"
           d="M 22,3 A 3,3 0 0 1 19,6 3,3 0 0 1 16,3 3,3 0 0 1 19,0 3,3 0 0 1 22,3 Z"
           id="circle1452"
           inkscape:connector-curvature="0" />
        <path
           inkscape:connector-curvature="0"
           style="stroke:#ffffff"
           d="M 29,28 24,18 11,19 16,7.75 8,8 5,14"
           id="path1454" />
      </g>
    </g>
    <path
       style="fill:none;stroke:#ffffff;stroke-width:2.68185759;stroke-linecap:round;stroke-linejoin:round"
       d="m 331.44132,90.138916 a 5.5552769,5.5552769 0 0 1 -5.55527,5.555277 5.5552769,5.5552769 0 0 1 -5.55528,-5.555277 5.5552769,5.5552769 0 0 1 5.55528,-5.555277 5.5552769,5.5552769 0 0 1 5.55527,5.555277 z"
       id="circle1460"
       inkscape:connector-curvature="0" />
  </g>
  <path
     style="opacity:1;fill:none;fill-opacity:0.94117647;stroke:#000000;stroke-width:4;stroke-miterlimit:4;stroke-dasharray:none;stroke-dashoffset:0;stroke-opacity:1"
     d="m 34.091793,119.33646 a 15.911921,15.911921 0 0 1 -15.91192,15.91192 15.911921,15.911921 0 0 1 -15.911921,-15.91192 15.911921,15.911921 0 0 1 15.911921,-15.91192 15.911921,15.911921 0 0 1 15.91192,15.91192 z"
     id="circle1464" />
  <g
     aria-label="WBT  🡲"
     transform="scale(0.87650063,1.1409005)"
     style="font-style:normal;font-variant:normal;font-weight:normal;font-stretch:normal;font-size:34.16946411px;line-height:1.25;font-family:'Arial Rounded MT Bold';-inkscape-font-specification:'Arial Rounded MT Bold, ';letter-spacing:0px;word-spacing:0px;fill:#000000;fill-opacity:1;stroke:none;stroke-width:0.8542366"
     id="text1468">
    <path
       d="m 114.45346,54.290376 h 3.38221 l 5.20594,20.923253 5.18936,-20.923253 h 3.76354 l 5.20594,20.923253 5.18937,-20.923253 h 3.39878 l -6.21729,24.753104 h -4.21118 l -5.22252,-21.486954 -5.27226,21.486954 h -4.21118 z"
       style="font-style:normal;font-variant:normal;font-weight:normal;font-stretch:normal;font-family:sans-serif;-inkscape-font-specification:sans-serif"
       id="path1127"
       inkscape:connector-curvature="0" />
    <path
       d="m 153.56436,67.222339 v 9.068954 h 5.37174 q 2.70244,0 3.99564,-1.110823 1.30978,-1.127401 1.30978,-3.431944 0,-2.321121 -1.30978,-3.415364 -1.2932,-1.110823 -3.99564,-1.110823 z m 0,-10.179776 v 7.460748 h 4.95725 q 2.45376,0 3.64748,-0.911869 1.2103,-0.928449 1.2103,-2.818505 0,-1.873477 -1.2103,-2.801925 -1.19372,-0.928449 -3.64748,-0.928449 z m -3.34905,-2.752187 h 8.55499 q 3.82985,0 5.90228,1.591626 2.07243,1.591627 2.07243,4.526188 0,2.271383 -1.06108,3.614317 -1.06109,1.342935 -3.11694,1.674524 2.47034,0.530542 3.82985,2.221645 1.3761,1.674523 1.3761,4.194598 0,3.315888 -2.25481,5.123047 -2.2548,1.807159 -6.41624,1.807159 h -8.88658 z"
       style="font-style:normal;font-variant:normal;font-weight:normal;font-stretch:normal;font-family:sans-serif;-inkscape-font-specification:sans-serif"
       id="path1129"
       inkscape:connector-curvature="0" />
    <path
       d="m 170.0609,54.290376 h 20.93983 v 2.818505 h -8.7871 V 79.04348 H 178.848 V 57.108881 h -8.7871 z"
       style="font-style:normal;font-variant:normal;font-weight:normal;font-stretch:normal;font-family:sans-serif;-inkscape-font-specification:sans-serif"
       id="path1131"
       inkscape:connector-curvature="0" />
    <path
       d="M 244.43626,66.774694 232.16748,54.505909 h -6.94679 l 9.81503,9.815028 h -19.63005 v 4.907515 h 19.63005 l -9.81503,9.815028 h 6.94679 z"
       style="font-style:normal;font-variant:normal;font-weight:normal;font-stretch:normal;font-family:sans-serif;-inkscape-font-specification:sans-serif"
       id="path1133"
       inkscape:connector-curvature="0" />
  </g>
  <path
     style="opacity:1;fill:none;fill-opacity:0.94117647;stroke:#000000;stroke-width:4;stroke-miterlimit:4;stroke-dasharray:none;stroke-dashoffset:0;stroke-opacity:1"
     d="m 106.7889,122.6368 a 5.8988962,5.8988962 0 0 1 -5.89889,5.8989 5.8988962,5.8988962 0 0 1 -5.898899,-5.8989 5.8988962,5.8988962 0 0 1 5.898899,-5.89889 5.8988962,5.8988962 0 0 1 5.89889,5.89889 z"
     id="circle1476" />
  <path
     style="opacity:1;fill:none;fill-opacity:1;stroke:none;stroke-width:1.38711905;stroke-miterlimit:4;stroke-dasharray:none;stroke-dashoffset:0;stroke-opacity:1"
     d="M 0,0 H 216.8196 V 149.75006 H 0 Z"
     id="rect1237-5" />
</svg>
