<?xml version="1.0" encoding="UTF-8" standalone="no"?>
<svg
   xmlns:dc="http://purl.org/dc/elements/1.1/"
   xmlns:cc="http://creativecommons.org/ns#"
   xmlns:rdf="http://www.w3.org/1999/02/22-rdf-syntax-ns#"
   xmlns:svg="http://www.w3.org/2000/svg"
   xmlns="http://www.w3.org/2000/svg"
   xmlns:sodipodi="http://sodipodi.sourceforge.net/DTD/sodipodi-0.dtd"
   xmlns:inkscape="http://www.inkscape.org/namespaces/inkscape"
   id="svg8"
   version="1.1"
   viewBox="0 0 399.1658 149.07156"
   height="149.07156mm"
   width="399.1658mm"
   sodipodi:docname="q_and_a.svg"
   inkscape:version="0.92.2 (5c3e80d, 2017-08-06)">
  <sodipodi:namedview
     pagecolor="#ffffff"
     bordercolor="#666666"
     borderopacity="1"
     objecttolerance="10"
     gridtolerance="10"
     guidetolerance="10"
     inkscape:pageopacity="0"
     inkscape:pageshadow="2"
     inkscape:window-width="1920"
     inkscape:window-height="1017"
     id="namedview158"
     showgrid="false"
     fit-margin-top="0"
     fit-margin-left="0"
     fit-margin-right="0"
     fit-margin-bottom="0"
     inkscape:zoom="0.3247288"
     inkscape:cx="539.29741"
     inkscape:cy="233.0834"
     inkscape:window-x="1912"
     inkscape:window-y="-8"
     inkscape:window-maximized="1"
     inkscape:current-layer="text1468-8" />
  <defs
     id="defs2">
    <marker
       style="overflow:visible"
       id="marker2931"
       refX="0"
       refY="0"
       orient="auto">
      <path
         transform="scale(-0.6)"
         d="M 8.7185878,4.0337352 -2.2072895,0.01601326 8.7185884,-4.0017078 c -1.7454984,2.3720609 -1.7354408,5.6174519 -6e-7,8.035443 z"
         style="fill:#000000;fill-opacity:1;fill-rule:evenodd;stroke:#000000;stroke-width:0.625;stroke-linejoin:round;stroke-opacity:1"
         id="path2929"
         inkscape:connector-curvature="0" />
    </marker>
    <marker
       style="overflow:visible"
       id="marker2777"
       refX="0"
       refY="0"
       orient="auto">
      <path
         transform="scale(-0.6)"
         d="M 8.7185878,4.0337352 -2.2072895,0.01601326 8.7185884,-4.0017078 c -1.7454984,2.3720609 -1.7354408,5.6174519 -6e-7,8.035443 z"
         style="fill:#000000;fill-opacity:1;fill-rule:evenodd;stroke:#000000;stroke-width:0.625;stroke-linejoin:round;stroke-opacity:1"
         id="path2775"
         inkscape:connector-curvature="0" />
    </marker>
    <marker
       style="overflow:visible"
       id="marker2629"
       refX="0"
       refY="0"
       orient="auto">
      <path
         transform="scale(-0.6)"
         d="M 8.7185878,4.0337352 -2.2072895,0.01601326 8.7185884,-4.0017078 c -1.7454984,2.3720609 -1.7354408,5.6174519 -6e-7,8.035443 z"
         style="fill:#000000;fill-opacity:1;fill-rule:evenodd;stroke:#000000;stroke-width:0.625;stroke-linejoin:round;stroke-opacity:1"
         id="path2627"
         inkscape:connector-curvature="0" />
    </marker>
    <marker
       style="overflow:visible"
       id="marker2487"
       refX="0"
       refY="0"
       orient="auto">
      <path
         transform="scale(-0.6)"
         d="M 8.7185878,4.0337352 -2.2072895,0.01601326 8.7185884,-4.0017078 c -1.7454984,2.3720609 -1.7354408,5.6174519 -6e-7,8.035443 z"
         style="fill:#000000;fill-opacity:1;fill-rule:evenodd;stroke:#000000;stroke-width:0.625;stroke-linejoin:round;stroke-opacity:1"
         id="path2485"
         inkscape:connector-curvature="0" />
    </marker>
    <marker
       style="overflow:visible"
       id="marker2351"
       refX="0"
       refY="0"
       orient="auto">
      <path
         transform="matrix(-0.4,0,0,-0.4,-4,0)"
         style="fill:#000000;fill-opacity:1;fill-rule:evenodd;stroke:#000000;stroke-width:1.00000003pt;stroke-opacity:1"
         d="M 0,0 5,-5 -12.5,0 5,5 Z"
         id="path2349"
         inkscape:connector-curvature="0" />
    </marker>
    <marker
       style="overflow:visible"
       id="Arrow1Mend"
       refX="0"
       refY="0"
       orient="auto">
      <path
         transform="matrix(-0.4,0,0,-0.4,-4,0)"
         style="fill:#000000;fill-opacity:1;fill-rule:evenodd;stroke:#000000;stroke-width:1.00000003pt;stroke-opacity:1"
         d="M 0,0 5,-5 -12.5,0 5,5 Z"
         id="path1100"
         inkscape:connector-curvature="0" />
    </marker>
    <marker
       style="overflow:visible"
       id="Arrow2Send"
       refX="0"
       refY="0"
       orient="auto">
      <path
         transform="matrix(-0.3,0,0,-0.3,0.69,0)"
         d="M 8.7185878,4.0337352 -2.2072895,0.01601326 8.7185884,-4.0017078 c -1.7454984,2.3720609 -1.7354408,5.6174519 -6e-7,8.035443 z"
         style="fill:#000000;fill-opacity:1;fill-rule:evenodd;stroke:#000000;stroke-width:0.625;stroke-linejoin:round;stroke-opacity:1"
         id="path1124"
         inkscape:connector-curvature="0" />
    </marker>
    <marker
       style="overflow:visible"
       id="Arrow1Send"
       refX="0"
       refY="0"
       orient="auto">
      <path
         transform="matrix(-0.2,0,0,-0.2,-1.2,0)"
         style="fill:#000000;fill-opacity:1;fill-rule:evenodd;stroke:#000000;stroke-width:1.00000003pt;stroke-opacity:1"
         d="M 0,0 5,-5 -12.5,0 5,5 Z"
         id="path1106"
         inkscape:connector-curvature="0" />
    </marker>
    <marker
       style="overflow:visible"
       id="marker1597"
       refX="0"
       refY="0"
       orient="auto">
      <path
         transform="scale(-0.6)"
         d="M 8.7185878,4.0337352 -2.2072895,0.01601326 8.7185884,-4.0017078 c -1.7454984,2.3720609 -1.7354408,5.6174519 -6e-7,8.035443 z"
         style="fill:#000000;fill-opacity:1;fill-rule:evenodd;stroke:#000000;stroke-width:0.625;stroke-linejoin:round;stroke-opacity:1"
         id="path1595"
         inkscape:connector-curvature="0" />
    </marker>
    <marker
       style="overflow:visible"
       id="Arrow2Mend"
       refX="0"
       refY="0"
       orient="auto">
      <path
         transform="scale(-0.6)"
         d="M 8.7185878,4.0337352 -2.2072895,0.01601326 8.7185884,-4.0017078 c -1.7454984,2.3720609 -1.7354408,5.6174519 -6e-7,8.035443 z"
         style="fill:#000000;fill-opacity:1;fill-rule:evenodd;stroke:#000000;stroke-width:0.625;stroke-linejoin:round;stroke-opacity:1"
         id="path1118"
         inkscape:connector-curvature="0" />
    </marker>
    <marker
       orient="auto"
       refY="0"
       refX="0"
       id="marker10948"
       style="overflow:visible">
      <path
         id="path10946"
         d="m -2.5,-1 c 0,2.76 -2.24,5 -5,5 -2.76,0 -5,-2.24 -5,-5 0,-2.76 2.24,-5 5,-5 2.76,0 5,2.24 5,5 z"
         style="fill:#3a001c;fill-opacity:1;fill-rule:evenodd;stroke:#3a001c;stroke-width:1.00000003pt;stroke-opacity:1"
         transform="matrix(0.2,0,0,0.2,1.48,0.2)"
         inkscape:connector-curvature="0" />
    </marker>
    <marker
       orient="auto"
       refY="0"
       refX="0"
       id="marker10836"
       style="overflow:visible">
      <path
         id="path10834"
         d="m -2.5,-1 c 0,2.76 -2.24,5 -5,5 -2.76,0 -5,-2.24 -5,-5 0,-2.76 2.24,-5 5,-5 2.76,0 5,2.24 5,5 z"
         style="fill:#3a001c;fill-opacity:1;fill-rule:evenodd;stroke:#3a001c;stroke-width:1.00000003pt;stroke-opacity:1"
         transform="matrix(0.2,0,0,0.2,1.48,0.2)"
         inkscape:connector-curvature="0" />
    </marker>
    <marker
       style="overflow:visible"
       id="marker10664"
       refX="0"
       refY="0"
       orient="auto">
      <path
         transform="matrix(0.2,0,0,0.2,1.48,0.2)"
         style="fill:#3a001c;fill-opacity:1;fill-rule:evenodd;stroke:#3a001c;stroke-width:1.00000003pt;stroke-opacity:1"
         d="m -2.5,-1 c 0,2.76 -2.24,5 -5,5 -2.76,0 -5,-2.24 -5,-5 0,-2.76 2.24,-5 5,-5 2.76,0 5,2.24 5,5 z"
         id="path10662"
         inkscape:connector-curvature="0" />
    </marker>
    <marker
       orient="auto"
       refY="0"
       refX="0"
       id="marker10414"
       style="overflow:visible">
      <path
         id="path10412"
         d="m -2.5,-1 c 0,2.76 -2.24,5 -5,5 -2.76,0 -5,-2.24 -5,-5 0,-2.76 2.24,-5 5,-5 2.76,0 5,2.24 5,5 z"
         style="fill:#3a001c;fill-opacity:1;fill-rule:evenodd;stroke:#3a001c;stroke-width:1.00000003pt;stroke-opacity:1"
         transform="matrix(0.2,0,0,0.2,1.48,0.2)"
         inkscape:connector-curvature="0" />
    </marker>
    <marker
       orient="auto"
       refY="0"
       refX="0"
       id="marker10308"
       style="overflow:visible">
      <path
         id="path10306"
         d="m -2.5,-1 c 0,2.76 -2.24,5 -5,5 -2.76,0 -5,-2.24 -5,-5 0,-2.76 2.24,-5 5,-5 2.76,0 5,2.24 5,5 z"
         style="fill:#3a001c;fill-opacity:1;fill-rule:evenodd;stroke:#3a001c;stroke-width:1.00000003pt;stroke-opacity:1"
         transform="matrix(0.2,0,0,0.2,1.48,0.2)"
         inkscape:connector-curvature="0" />
    </marker>
    <marker
       style="overflow:visible"
       id="DotS"
       refX="0"
       refY="0"
       orient="auto">
      <path
         transform="matrix(0.2,0,0,0.2,1.48,0.2)"
         style="fill:#3a001c;fill-opacity:1;fill-rule:evenodd;stroke:#3a001c;stroke-width:1.00000003pt;stroke-opacity:1"
         d="m -2.5,-1 c 0,2.76 -2.24,5 -5,5 -2.76,0 -5,-2.24 -5,-5 0,-2.76 2.24,-5 5,-5 2.76,0 5,2.24 5,5 z"
         id="path4919"
         inkscape:connector-curvature="0" />
    </marker>
    <marker
       style="overflow:visible"
       id="DotM"
       refX="0"
       refY="0"
       orient="auto">
      <path
         transform="matrix(0.4,0,0,0.4,2.96,0.4)"
         style="fill:#000000;fill-opacity:1;fill-rule:evenodd;stroke:#000000;stroke-width:1.00000003pt;stroke-opacity:1"
         d="m -2.5,-1 c 0,2.76 -2.24,5 -5,5 -2.76,0 -5,-2.24 -5,-5 0,-2.76 2.24,-5 5,-5 2.76,0 5,2.24 5,5 z"
         id="path4916"
         inkscape:connector-curvature="0" />
    </marker>
    <marker
       style="overflow:visible"
       id="DotL"
       refX="0"
       refY="0"
       orient="auto">
      <path
         transform="matrix(0.8,0,0,0.8,5.92,0.8)"
         style="fill:#000000;fill-opacity:1;fill-rule:evenodd;stroke:#000000;stroke-width:1.00000003pt;stroke-opacity:1"
         d="m -2.5,-1 c 0,2.76 -2.24,5 -5,5 -2.76,0 -5,-2.24 -5,-5 0,-2.76 2.24,-5 5,-5 2.76,0 5,2.24 5,5 z"
         id="path4913"
         inkscape:connector-curvature="0" />
    </marker>
    <clipPath
       id="clipPath8">
      <path
         id="path10"
         d="M -20,50 10,13 c 5.522847,0 10,4.477153 10,10 L 40,50 20,-30"
         inkscape:connector-curvature="0" />
    </clipPath>
    <marker
       style="overflow:visible"
       id="DotS-3"
       refX="0"
       refY="0"
       orient="auto">
      <path
         transform="matrix(0.2,0,0,0.2,1.48,0.2)"
         style="fill:#3a001c;fill-opacity:1;fill-rule:evenodd;stroke:#3a001c;stroke-width:1.00000003pt;stroke-opacity:1"
         d="m -2.5,-1 c 0,2.76 -2.24,5 -5,5 -2.76,0 -5,-2.24 -5,-5 0,-2.76 2.24,-5 5,-5 2.76,0 5,2.24 5,5 z"
         id="path4919-5"
         inkscape:connector-curvature="0" />
    </marker>
    <marker
       style="overflow:visible"
       id="DotS-3-7"
       refX="0"
       refY="0"
       orient="auto">
      <path
         transform="matrix(0.2,0,0,0.2,1.48,0.2)"
         style="fill:#3a001c;fill-opacity:1;fill-rule:evenodd;stroke:#3a001c;stroke-width:1.00000003pt;stroke-opacity:1"
         d="m -2.5,-1 c 0,2.76 -2.24,5 -5,5 -2.76,0 -5,-2.24 -5,-5 0,-2.76 2.24,-5 5,-5 2.76,0 5,2.24 5,5 z"
         id="path4919-5-2"
         inkscape:connector-curvature="0" />
    </marker>
    <marker
       style="overflow:visible"
       id="DotS-0"
       refX="0"
       refY="0"
       orient="auto">
      <path
         transform="matrix(0.2,0,0,0.2,1.48,0.2)"
         style="fill:#3a001c;fill-opacity:1;fill-rule:evenodd;stroke:#3a001c;stroke-width:1.00000003pt;stroke-opacity:1"
         d="m -2.5,-1 c 0,2.76 -2.24,5 -5,5 -2.76,0 -5,-2.24 -5,-5 0,-2.76 2.24,-5 5,-5 2.76,0 5,2.24 5,5 z"
         id="path4919-2"
         inkscape:connector-curvature="0" />
    </marker>
    <marker
       style="overflow:visible"
       id="DotS-3-70"
       refX="0"
       refY="0"
       orient="auto">
      <path
         transform="matrix(0.2,0,0,0.2,1.48,0.2)"
         style="fill:#ffffff;fill-opacity:1;fill-rule:evenodd;stroke:#ffffff;stroke-width:1.00000003pt;stroke-opacity:1"
         d="m -2.5,-1 c 0,2.76 -2.24,5 -5,5 -2.76,0 -5,-2.24 -5,-5 0,-2.76 2.24,-5 5,-5 2.76,0 5,2.24 5,5 z"
         id="path4919-5-9"
         inkscape:connector-curvature="0" />
    </marker>
    <marker
       style="overflow:visible"
       id="DotS-4"
       refX="0"
       refY="0"
       orient="auto">
      <path
         transform="matrix(0.2,0,0,0.2,1.48,0.2)"
         style="fill:#3a001c;fill-opacity:1;fill-rule:evenodd;stroke:#3a001c;stroke-width:1.00000003pt;stroke-opacity:1"
         d="m -2.5,-1 c 0,2.76 -2.24,5 -5,5 -2.76,0 -5,-2.24 -5,-5 0,-2.76 2.24,-5 5,-5 2.76,0 5,2.24 5,5 z"
         id="path4919-1"
         inkscape:connector-curvature="0" />
    </marker>
    <marker
       style="overflow:visible"
       id="DotS-4-8"
       refX="0"
       refY="0"
       orient="auto">
      <path
         transform="matrix(0.2,0,0,0.2,1.48,0.2)"
         style="fill:#ffffff;fill-opacity:1;fill-rule:evenodd;stroke:#000000;stroke-width:1.00000003pt;stroke-opacity:1"
         d="m -2.5,-1 c 0,2.76 -2.24,5 -5,5 -2.76,0 -5,-2.24 -5,-5 0,-2.76 2.24,-5 5,-5 2.76,0 5,2.24 5,5 z"
         id="path4919-1-2"
         inkscape:connector-curvature="0" />
    </marker>
    <filter
       y="-0.25"
       x="-0.25"
       height="1.5"
       width="1.5"
       id="filter3001"
       style="color-interpolation-filters:sRGB">
      <feGaussianBlur
         result="blur"
         stdDeviation="3"
         in="SourceAlpha"
         id="feGaussianBlur3003" />
      <feColorMatrix
         values="1 0 0 0 0 0 1 0 0 0 0 0 1 0 0 0 0 0 0.6 0 "
         type="matrix"
         result="bluralpha"
         id="feColorMatrix3005" />
      <feOffset
         result="offsetBlur"
         dy="6"
         dx="6"
         in="bluralpha"
         id="feOffset3007" />
      <feMerge
         id="feMerge3009">
        <feMergeNode
           in="offsetBlur"
           id="feMergeNode3011" />
        <feMergeNode
           in="SourceGraphic"
           id="feMergeNode3013" />
      </feMerge>
    </filter>
    <marker
       style="overflow:visible"
       id="marker2931-1"
       refX="0"
       refY="0"
       orient="auto">
      <path
         transform="scale(-0.6)"
         d="M 8.7185878,4.0337352 -2.2072895,0.01601326 8.7185884,-4.0017078 c -1.7454984,2.3720609 -1.7354408,5.6174519 -6e-7,8.035443 z"
         style="fill:#000000;fill-opacity:1;fill-rule:evenodd;stroke:#000000;stroke-width:0.625;stroke-linejoin:round;stroke-opacity:1"
         id="path2929-8"
         inkscape:connector-curvature="0" />
    </marker>
    <clipPath
       id="clipPath8-3">
      <path
         id="path10-1"
         d="M -20,50 10,13 c 5.522847,0 10,4.477153 10,10 L 40,50 20,-30"
         inkscape:connector-curvature="0" />
    </clipPath>
    <clipPath
       id="clipPath3733">
      <path
         id="path3731"
         d="M -20,50 10,13 c 5.522847,0 10,4.477153 10,10 L 40,50 20,-30"
         inkscape:connector-curvature="0" />
    </clipPath>
    <clipPath
       id="clipPath8-5">
      <path
         id="path10-5"
         d="M -20,50 10,13 c 5.522847,0 10,4.477153 10,10 L 40,50 20,-30"
         inkscape:connector-curvature="0" />
    </clipPath>
    <clipPath
       id="clipPath4087">
      <path
         id="path4085"
         d="M -20,50 10,13 c 5.522847,0 10,4.477153 10,10 L 40,50 20,-30"
         inkscape:connector-curvature="0" />
    </clipPath>
    <marker
       style="overflow:visible"
       id="marker2931-2"
       refX="0"
       refY="0"
       orient="auto">
      <path
         transform="scale(-0.6)"
         d="M 8.7185878,4.0337352 -2.2072895,0.01601326 8.7185884,-4.0017078 c -1.7454984,2.3720609 -1.7354408,5.6174519 -6e-7,8.035443 z"
         style="fill:#000000;fill-opacity:1;fill-rule:evenodd;stroke:#000000;stroke-width:0.625;stroke-linejoin:round;stroke-opacity:1"
         id="path2929-0"
         inkscape:connector-curvature="0" />
    </marker>
    <clipPath
       id="clipPath8-5-9">
      <path
         id="path10-5-5"
         d="M -20,50 10,13 c 5.522847,0 10,4.477153 10,10 L 40,50 20,-30"
         inkscape:connector-curvature="0" />
    </clipPath>
    <clipPath
       id="clipPath4451">
      <path
         id="path4449"
         d="M -20,50 10,13 c 5.522847,0 10,4.477153 10,10 L 40,50 20,-30"
         inkscape:connector-curvature="0" />
    </clipPath>
    <marker
       style="overflow:visible"
       id="marker2931-2-9"
       refX="0"
       refY="0"
       orient="auto">
      <path
         transform="scale(-0.6)"
         d="M 8.7185878,4.0337352 -2.2072895,0.01601326 8.7185884,-4.0017078 c -1.7454984,2.3720609 -1.7354408,5.6174519 -6e-7,8.035443 z"
         style="fill:#000000;fill-opacity:1;fill-rule:evenodd;stroke:#000000;stroke-width:0.625;stroke-linejoin:round;stroke-opacity:1"
         id="path2929-0-1"
         inkscape:connector-curvature="0" />
    </marker>
    <clipPath
       id="clipPath8-5-9-1">
      <path
         id="path10-5-5-8"
         d="M -20,50 10,13 c 5.522847,0 10,4.477153 10,10 L 40,50 20,-30"
         inkscape:connector-curvature="0" />
    </clipPath>
    <clipPath
       id="clipPath4860">
      <path
         id="path4858"
         d="M -20,50 10,13 c 5.522847,0 10,4.477153 10,10 L 40,50 20,-30"
         inkscape:connector-curvature="0" />
    </clipPath>
    <marker
       style="overflow:visible"
       id="marker2931-2-9-7"
       refX="0"
       refY="0"
       orient="auto">
      <path
         transform="scale(-0.6)"
         d="M 8.7185878,4.0337352 -2.2072895,0.01601326 8.7185884,-4.0017078 c -1.7454984,2.3720609 -1.7354408,5.6174519 -6e-7,8.035443 z"
         style="fill:#000000;fill-opacity:1;fill-rule:evenodd;stroke:#000000;stroke-width:0.625;stroke-linejoin:round;stroke-opacity:1"
         id="path2929-0-1-6"
         inkscape:connector-curvature="0" />
    </marker>
    <clipPath
       id="clipPath8-1">
      <path
         id="path10-9"
         d="M -20,50 10,13 c 5.522847,0 10,4.477153 10,10 L 40,50 20,-30"
         inkscape:connector-curvature="0" />
    </clipPath>
    <clipPath
       id="clipPath1674">
      <path
         id="path1672"
         d="M -20,50 10,13 c 5.522847,0 10,4.477153 10,10 L 40,50 20,-30"
         inkscape:connector-curvature="0" />
    </clipPath>
    <clipPath
       id="clipPath8-6">
      <path
         id="path10-8"
         d="M -20,50 10,13 c 5.522847,0 10,4.477153 10,10 L 40,50 20,-30"
         inkscape:connector-curvature="0" />
    </clipPath>
    <clipPath
       id="clipPath1674-4">
      <path
         id="path1672-1"
         d="M -20,50 10,13 c 5.522847,0 10,4.477153 10,10 L 40,50 20,-30"
         inkscape:connector-curvature="0" />
    </clipPath>
    <clipPath
       id="clipPath8-9">
      <path
         id="path10-7"
         d="M -20,50 10,13 c 5.522847,0 10,4.477153 10,10 L 40,50 20,-30"
         inkscape:connector-curvature="0" />
    </clipPath>
    <clipPath
       id="clipPath1674-45">
      <path
         id="path1672-0"
         d="M -20,50 10,13 c 5.522847,0 10,4.477153 10,10 L 40,50 20,-30"
         inkscape:connector-curvature="0" />
    </clipPath>
    <clipPath
       id="clipPath8-7">
      <path
         id="path10-72"
         d="M -20,50 10,13 c 5.522847,0 10,4.477153 10,10 L 40,50 20,-30"
         inkscape:connector-curvature="0" />
    </clipPath>
    <clipPath
       id="clipPath1540">
      <path
         id="path1538"
         d="M -20,50 10,13 c 5.522847,0 10,4.477153 10,10 L 40,50 20,-30"
         inkscape:connector-curvature="0" />
    </clipPath>
    <clipPath
       id="clipPath8-66">
      <path
         id="path10-85"
         d="M -20,50 10,13 c 5.522847,0 10,4.477153 10,10 L 40,50 20,-30"
         inkscape:connector-curvature="0" />
    </clipPath>
    <clipPath
       id="clipPath1540-1">
      <path
         id="path1538-4"
         d="M -20,50 10,13 c 5.522847,0 10,4.477153 10,10 L 40,50 20,-30"
         inkscape:connector-curvature="0" />
    </clipPath>
    <clipPath
       id="clipPath8-16">
      <path
         id="path10-50"
         d="M -20,50 10,13 c 5.522847,0 10,4.477153 10,10 L 40,50 20,-30"
         inkscape:connector-curvature="0" />
    </clipPath>
    <clipPath
       id="clipPath1540-0">
      <path
         id="path1538-7"
         d="M -20,50 10,13 c 5.522847,0 10,4.477153 10,10 L 40,50 20,-30"
         inkscape:connector-curvature="0" />
    </clipPath>
  </defs>
  <metadata
     id="metadata5">
    <rdf:RDF>
      <cc:Work
         rdf:about="">
        <dc:format>image/svg+xml</dc:format>
        <dc:type
           rdf:resource="http://purl.org/dc/dcmitype/StillImage" />
        <dc:title />
      </cc:Work>
    </rdf:RDF>
  </metadata>
  <g
     aria-label="Barrierefreiheit Q&amp;A"
     transform="scale(0.87650063,1.1409005)"
     style="font-style:normal;font-variant:normal;font-weight:normal;font-stretch:normal;font-size:36.03230286px;line-height:1.25;font-family:'Arial Rounded MT Bold';-inkscape-font-specification:'Arial Rounded MT Bold, ';letter-spacing:0px;word-spacing:0px;fill:#000000;fill-opacity:1;stroke:none;stroke-width:0.90080762;stroke-opacity:1"
     id="text1468-8">
    <path
       d="m 36.2782,63.457336 q 1.590981,0 2.412697,-0.699333 0.821715,-0.699332 0.821715,-2.063031 0,-1.346215 -0.821715,-2.045547 -0.821716,-0.716816 -2.412697,-0.716816 h -3.723946 v 5.524727 z m 0.227283,11.416603 q 2.028064,0 3.042096,-0.856682 1.031516,-0.856683 1.031516,-2.587531 0,-1.695881 -1.014033,-2.53508 -1.014032,-0.856682 -3.059579,-0.856682 h -3.951229 v 6.835975 z M 42.764509,65.4854 q 2.16793,0.629399 3.356796,2.325281 1.188865,1.695881 1.188865,4.161028 0,3.776396 -2.552564,5.629627 -2.552563,1.853231 -7.762591,1.853231 H 25.823179 V 53.351981 h 10.105354 q 5.437311,0 7.867491,1.643432 2.447664,1.643431 2.447664,5.262477 0,1.905681 -0.891649,3.251896 -0.891649,1.328732 -2.58753,1.975614 z"
       style="font-style:normal;font-variant:normal;font-weight:bold;font-stretch:normal;font-family:sans-serif;-inkscape-font-specification:'sans-serif Bold';stroke:none;stroke-width:0.90080762;stroke-opacity:1"
       id="path1090"
       inkscape:connector-curvature="0" />
    <path
       d="m 61.594036,70.642977 q -1.958131,0 -2.954679,0.664366 -0.979066,0.664366 -0.979066,1.958131 0,1.188866 0.786749,1.870715 0.804232,0.664366 2.220381,0.664366 1.765814,0 2.972163,-1.258799 1.206349,-1.276282 1.206349,-3.181963 v -0.716816 z m 9.563372,-2.360247 v 11.171837 h -6.311475 v -2.90223 q -1.258799,1.783298 -2.832297,2.605014 -1.573498,0.804232 -3.828846,0.804232 -3.042096,0 -4.947777,-1.765815 -1.888198,-1.783297 -1.888198,-4.615594 0,-3.444213 2.360247,-5.052677 2.377731,-1.608465 7.447892,-1.608465 h 3.688979 v -0.489533 q 0,-1.486082 -1.171382,-2.167931 -1.171382,-0.699332 -3.654013,-0.699332 -2.010581,0 -3.741429,0.402116 -1.730848,0.402116 -3.216929,1.206349 v -4.772945 q 2.010581,-0.489533 4.038645,-0.734299 2.028064,-0.26225 4.056129,-0.26225 5.297443,0 7.640207,2.097998 2.360247,2.080514 2.360247,6.783525 z"
       style="font-style:normal;font-variant:normal;font-weight:bold;font-stretch:normal;font-family:sans-serif;-inkscape-font-specification:'sans-serif Bold';stroke:none;stroke-width:0.90080762;stroke-opacity:1"
       id="path1092"
       inkscape:connector-curvature="0" />
    <path
       d="m 91.560433,65.205667 q -0.821716,-0.384633 -1.643432,-0.559466 -0.804232,-0.192316 -1.625948,-0.192316 -2.412697,0 -3.723945,1.556015 -1.293765,1.538531 -1.293765,4.423278 v 9.021389 h -6.259026 v -19.58131 h 6.259026 v 3.216929 q 1.206348,-1.923164 2.762363,-2.79733 1.573498,-0.891649 3.758912,-0.891649 0.3147,0 0.681849,0.03497 0.36715,0.01748 1.066482,0.1049 z"
       style="font-style:normal;font-variant:normal;font-weight:bold;font-stretch:normal;font-family:sans-serif;-inkscape-font-specification:'sans-serif Bold';stroke:none;stroke-width:0.90080762;stroke-opacity:1"
       id="path1094"
       inkscape:connector-curvature="0" />
    <path
       d="m 109.25355,65.205667 q -0.82172,-0.384633 -1.64343,-0.559466 -0.80424,-0.192316 -1.62595,-0.192316 -2.4127,0 -3.72395,1.556015 -1.29376,1.538531 -1.29376,4.423278 v 9.021389 h -6.259028 v -19.58131 h 6.259028 v 3.216929 q 1.20635,-1.923164 2.76236,-2.79733 1.5735,-0.891649 3.75891,-0.891649 0.3147,0 0.68185,0.03497 0.36715,0.01748 1.06648,0.1049 z"
       style="font-style:normal;font-variant:normal;font-weight:bold;font-stretch:normal;font-family:sans-serif;-inkscape-font-specification:'sans-serif Bold';stroke:none;stroke-width:0.90080762;stroke-opacity:1"
       id="path1096"
       inkscape:connector-curvature="0" />
    <path
       d="m 112.40055,59.873257 h 6.25902 v 19.58131 h -6.25902 z m 0,-7.622725 h 6.25902 v 5.105128 h -6.25902 z"
       style="font-style:normal;font-variant:normal;font-weight:bold;font-stretch:normal;font-family:sans-serif;-inkscape-font-specification:'sans-serif Bold';stroke:none;stroke-width:0.90080762;stroke-opacity:1"
       id="path1098"
       inkscape:connector-curvature="0" />
    <path
       d="m 144.25514,69.611462 v 1.783298 h -14.63353 q 0.22728,2.202897 1.59098,3.304346 1.3637,1.101449 3.81136,1.101449 1.97562,0 4.03865,-0.57695 2.08051,-0.594432 4.26593,-1.783298 v 4.825395 q -2.22039,0.839199 -4.44077,1.258798 -2.22038,0.437083 -4.44076,0.437083 -5.31492,0 -8.2696,-2.69243 -2.9372,-2.709914 -2.9372,-7.587758 0,-4.790427 2.88475,-7.535308 2.90223,-2.74488 7.97239,-2.74488 4.61559,0 7.37795,2.779847 2.77985,2.779847 2.77985,7.430408 z m -6.43386,-2.080514 q 0,-1.783298 -1.049,-2.867264 -1.03151,-1.101448 -2.70991,-1.101448 -1.81826,0 -2.95468,1.031515 -1.13642,1.014032 -1.41615,2.937197 z"
       style="font-style:normal;font-variant:normal;font-weight:bold;font-stretch:normal;font-family:sans-serif;-inkscape-font-specification:'sans-serif Bold';stroke:none;stroke-width:0.90080762;stroke-opacity:1"
       id="path1101"
       inkscape:connector-curvature="0" />
    <path
       d="m 163.52175,65.205667 q -0.82171,-0.384633 -1.64343,-0.559466 -0.80423,-0.192316 -1.62595,-0.192316 -2.41269,0 -3.72394,1.556015 -1.29377,1.538531 -1.29377,4.423278 v 9.021389 h -6.25902 v -19.58131 h 6.25902 v 3.216929 q 1.20635,-1.923164 2.76236,-2.79733 1.5735,-0.891649 3.75892,-0.891649 0.3147,0 0.68185,0.03497 0.36715,0.01748 1.06648,0.1049 z"
       style="font-style:normal;font-variant:normal;font-weight:bold;font-stretch:normal;font-family:sans-serif;-inkscape-font-specification:'sans-serif Bold';stroke:none;stroke-width:0.90080762;stroke-opacity:1"
       id="path1103"
       inkscape:connector-curvature="0" />
    <path
       d="m 186.21509,69.611462 v 1.783298 h -14.63353 q 0.22728,2.202897 1.59098,3.304346 1.3637,1.101449 3.81137,1.101449 1.97561,0 4.03864,-0.57695 2.08051,-0.594432 4.26593,-1.783298 v 4.825395 q -2.22038,0.839199 -4.44076,1.258798 -2.22038,0.437083 -4.44076,0.437083 -5.31493,0 -8.26961,-2.69243 -2.9372,-2.709914 -2.9372,-7.587758 0,-4.790427 2.88475,-7.535308 2.90223,-2.74488 7.97239,-2.74488 4.61559,0 7.37796,2.779847 2.77984,2.779847 2.77984,7.430408 z m -6.43385,-2.080514 q 0,-1.783298 -1.049,-2.867264 -1.03152,-1.101448 -2.70992,-1.101448 -1.81826,0 -2.95468,1.031515 -1.13641,1.014032 -1.41615,2.937197 z"
       style="font-style:normal;font-variant:normal;font-weight:bold;font-stretch:normal;font-family:sans-serif;-inkscape-font-specification:'sans-serif Bold';stroke:none;stroke-width:0.90080762;stroke-opacity:1"
       id="path1105"
       inkscape:connector-curvature="0" />
    <path
       d="m 203.82078,52.250532 v 4.108579 h -3.46169 q -1.32873,0 -1.85323,0.489533 -0.5245,0.472049 -0.5245,1.660914 v 1.363699 h 5.34989 v 4.475728 h -5.34989 v 15.105582 h -6.25903 V 64.348985 h -3.11203 v -4.475728 h 3.11203 v -1.363699 q 0,-3.199446 1.7833,-4.720494 1.7833,-1.538532 5.52473,-1.538532 z"
       style="font-style:normal;font-variant:normal;font-weight:bold;font-stretch:normal;font-family:sans-serif;-inkscape-font-specification:'sans-serif Bold';stroke:none;stroke-width:0.90080762;stroke-opacity:1"
       id="path1107"
       inkscape:connector-curvature="0" />
    <path
       d="m 221.07682,65.205667 q -0.82171,-0.384633 -1.64343,-0.559466 -0.80423,-0.192316 -1.62595,-0.192316 -2.4127,0 -3.72394,1.556015 -1.29377,1.538531 -1.29377,4.423278 v 9.021389 h -6.25903 v -19.58131 h 6.25903 v 3.216929 q 1.20635,-1.923164 2.76236,-2.79733 1.5735,-0.891649 3.75892,-0.891649 0.3147,0 0.68185,0.03497 0.36714,0.01748 1.06648,0.1049 z"
       style="font-style:normal;font-variant:normal;font-weight:bold;font-stretch:normal;font-family:sans-serif;-inkscape-font-specification:'sans-serif Bold';stroke:none;stroke-width:0.90080762;stroke-opacity:1"
       id="path1109"
       inkscape:connector-curvature="0" />
    <path
       d="m 243.77016,69.611462 v 1.783298 h -14.63353 q 0.22728,2.202897 1.59098,3.304346 1.3637,1.101449 3.81136,1.101449 1.97562,0 4.03865,-0.57695 2.08051,-0.594432 4.26593,-1.783298 v 4.825395 q -2.22038,0.839199 -4.44076,1.258798 -2.22038,0.437083 -4.44077,0.437083 -5.31492,0 -8.2696,-2.69243 -2.9372,-2.709914 -2.9372,-7.587758 0,-4.790427 2.88475,-7.535308 2.90223,-2.74488 7.97239,-2.74488 4.61559,0 7.37796,2.779847 2.77984,2.779847 2.77984,7.430408 z m -6.43386,-2.080514 q 0,-1.783298 -1.04899,-2.867264 -1.03152,-1.101448 -2.70992,-1.101448 -1.81826,0 -2.95468,1.031515 -1.13641,1.014032 -1.41615,2.937197 z"
       style="font-style:normal;font-variant:normal;font-weight:bold;font-stretch:normal;font-family:sans-serif;-inkscape-font-specification:'sans-serif Bold';stroke:none;stroke-width:0.90080762;stroke-opacity:1"
       id="path1111"
       inkscape:connector-curvature="0" />
    <path
       d="m 248.49065,59.873257 h 6.25903 v 19.58131 h -6.25903 z m 0,-7.622725 h 6.25903 v 5.105128 h -6.25903 z"
       style="font-style:normal;font-variant:normal;font-weight:bold;font-stretch:normal;font-family:sans-serif;-inkscape-font-specification:'sans-serif Bold';stroke:none;stroke-width:0.90080762;stroke-opacity:1"
       id="path1113"
       inkscape:connector-curvature="0" />
    <path
       d="m 280.48512,67.530948 v 11.923619 h -6.29399 v -1.940648 -7.150675 q 0,-2.570047 -0.12239,-3.531629 -0.1049,-0.961582 -0.38463,-1.416148 -0.36715,-0.611916 -0.99655,-0.944099 -0.6294,-0.349666 -1.43363,-0.349666 -1.95813,0 -3.07706,1.521048 -1.11894,1.503565 -1.11894,4.178512 v 9.633305 h -6.25902 V 52.250532 h 6.25902 V 62.74052 q 1.41615,-1.713365 3.00713,-2.517597 1.59099,-0.821716 3.51415,-0.821716 3.39176,0 5.14009,2.080515 1.76582,2.080514 1.76582,6.049226 z"
       style="font-style:normal;font-variant:normal;font-weight:bold;font-stretch:normal;font-family:sans-serif;-inkscape-font-specification:'sans-serif Bold';stroke:none;stroke-width:0.90080762;stroke-opacity:1"
       id="path1115"
       inkscape:connector-curvature="0" />
    <path
       d="m 305.87089,69.611462 v 1.783298 h -14.63354 q 0.22729,2.202897 1.59099,3.304346 1.36369,1.101449 3.81136,1.101449 1.97561,0 4.03864,-0.57695 2.08052,-0.594432 4.26593,-1.783298 v 4.825395 q -2.22038,0.839199 -4.44076,1.258798 -2.22038,0.437083 -4.44076,0.437083 -5.31493,0 -8.26961,-2.69243 -2.9372,-2.709914 -2.9372,-7.587758 0,-4.790427 2.88475,-7.535308 2.90223,-2.74488 7.97239,-2.74488 4.6156,0 7.37796,2.779847 2.77985,2.779847 2.77985,7.430408 z m -6.43386,-2.080514 q 0,-1.783298 -1.049,-2.867264 -1.03152,-1.101448 -2.70991,-1.101448 -1.81827,0 -2.95468,1.031515 -1.13642,1.014032 -1.41615,2.937197 z"
       style="font-style:normal;font-variant:normal;font-weight:bold;font-stretch:normal;font-family:sans-serif;-inkscape-font-specification:'sans-serif Bold';stroke:none;stroke-width:0.90080762;stroke-opacity:1"
       id="path1117"
       inkscape:connector-curvature="0" />
    <path
       d="m 310.59139,59.873257 h 6.25902 v 19.58131 h -6.25902 z m 0,-7.622725 h 6.25902 v 5.105128 h -6.25902 z"
       style="font-style:normal;font-variant:normal;font-weight:bold;font-stretch:normal;font-family:sans-serif;-inkscape-font-specification:'sans-serif Bold';stroke:none;stroke-width:0.90080762;stroke-opacity:1"
       id="path1119"
       inkscape:connector-curvature="0" />
    <path
       d="m 329.73562,54.313563 v 5.559694 h 6.45134 v 4.475728 h -6.45134 v 8.304573 q 0,1.363699 0.54198,1.853231 0.54199,0.47205 2.15045,0.47205 h 3.21693 v 4.475728 h -5.36738 q -3.70646,0 -5.26247,-1.538532 -1.53853,-1.556014 -1.53853,-5.262477 v -8.304573 h -3.11203 v -4.475728 h 3.11203 v -5.559694 z"
       style="font-style:normal;font-variant:normal;font-weight:bold;font-stretch:normal;font-family:sans-serif;-inkscape-font-specification:'sans-serif Bold';stroke:none;stroke-width:0.90080762;stroke-opacity:1"
       id="path1121"
       inkscape:connector-curvature="0" />
    <path
       d="m 365.40157,79.926616 h -0.5245 q -6.45134,0 -10.03542,-3.566595 -3.58408,-3.566596 -3.58408,-9.930522 0,-6.346442 3.5666,-9.948005 3.58408,-3.601562 9.86059,-3.601562 6.34644,0 9.87807,3.566596 3.54911,3.566595 3.54911,9.982971 0,4.405795 -1.8882,7.587758 -1.87071,3.181963 -5.40234,4.790427 l 5.26248,5.874393 h -6.41638 z m -0.71681,-22.16884 q -3.07707,0 -4.77295,2.272831 -1.69588,2.27283 -1.69588,6.398892 0,4.195995 1.66091,6.433859 1.66092,2.220381 4.80792,2.220381 3.09454,0 4.79042,-2.272831 1.69588,-2.27283 1.69588,-6.381409 0,-4.126062 -1.69588,-6.398892 -1.69588,-2.272831 -4.79042,-2.272831 z"
       style="font-style:normal;font-variant:normal;font-weight:bold;font-stretch:normal;font-family:sans-serif;-inkscape-font-specification:'sans-serif Bold';stroke:none;stroke-width:0.90080762;stroke-opacity:1"
       id="path1123"
       inkscape:connector-curvature="0" />
    <path
       d="m 393.8644,62.128604 7.15067,7.867491 q 0.92662,-1.223832 1.39867,-2.74488 0.48953,-1.521048 0.57695,-3.444213 h 5.43731 q -0.26225,3.181963 -1.24132,5.664593 -0.96158,2.482631 -2.69243,4.353345 l 5.12261,5.629627 h -7.41292 l -1.71336,-1.905681 q -1.83575,1.223832 -3.86382,1.818264 -2.02806,0.594433 -4.30089,0.594433 -4.59811,0 -7.44789,-2.412697 -2.8323,-2.430181 -2.8323,-6.259026 0,-2.552564 1.24132,-4.510695 1.25879,-1.975614 4.09109,-3.828845 -0.7343,-0.926616 -1.08396,-1.853231 -0.34967,-0.926616 -0.34967,-1.940648 0,-2.84978 2.22038,-4.563145 2.22038,-1.713364 5.90936,-1.713364 1.59098,0 3.30435,0.262249 1.73084,0.244767 3.60156,0.751783 v 4.860361 q -1.64343,-0.839199 -3.11203,-1.241315 -1.4686,-0.402117 -2.86726,-0.402117 -1.34622,0 -2.098,0.5245 -0.7343,0.507016 -0.7343,1.451115 0,0.594432 0.4196,1.363698 0.43708,0.751783 1.27628,1.678398 z m -3.47918,4.335862 q -1.13641,0.821715 -1.71336,1.870714 -0.57695,1.031516 -0.57695,2.272831 0,2.010581 1.48608,3.426729 1.48608,1.416148 3.56659,1.416148 1.17139,0 2.18542,-0.349666 1.01403,-0.367149 1.8882,-1.083965 z"
       style="font-style:normal;font-variant:normal;font-weight:bold;font-stretch:normal;font-family:sans-serif;-inkscape-font-specification:'sans-serif Bold';stroke:none;stroke-width:0.90080762;stroke-opacity:1"
       id="path1125"
       inkscape:connector-curvature="0" />
    <path
       d="m 430.28214,74.699106 h -10.52495 l -1.66092,4.755461 h -6.76604 l 9.66827,-26.102586 h 8.02484 l 9.66827,26.102586 h -6.76604 z m -8.84656,-4.842878 h 7.15068 l -3.5666,-10.385087 z"
       style="font-style:normal;font-variant:normal;font-weight:bold;font-stretch:normal;font-family:sans-serif;-inkscape-font-specification:'sans-serif Bold';stroke:none;stroke-width:0.90080762;stroke-opacity:1"
       id="path1127"
       inkscape:connector-curvature="0" />
  </g>
  <path
     style="opacity:1;fill:none;fill-opacity:1;stroke:none;stroke-width:1.87782466;stroke-miterlimit:4;stroke-dasharray:none;stroke-dashoffset:0;stroke-opacity:1"
     d="M 0,0 H 399.1658 V 149.07156 H 0 Z"
     id="rect1237-5-00" />
</svg>
